<?xml version="1.0" encoding="UTF-8"?>
<svg width="25px" height="22px" viewBox="0 0 25 22" version="1.1" xmlns="http://www.w3.org/2000/svg" xmlns:xlink="http://www.w3.org/1999/xlink">
    <!-- Generator: Sketch 52.3 (67297) - http://www.bohemiancoding.com/sketch -->
    <title>Shape</title>
    <desc>Created with Sketch.</desc>
    <g id="Page-1" stroke="none" stroke-width="1" fill="none" fill-rule="evenodd">
        <path d="M4.55129572,0 C3.5431911,0 2.71086957,0.825968342 2.71086957,1.83407296 L2.71086957,2.16869565 L1.62652174,2.16869565 C0.734899932,2.16869565 0,2.90359558 0,3.79521739 L0,16.3245177 C0,17.2161395 0.734899932,17.9510394 1.62652174,17.9510394 L1.68158655,17.9510394 L21.3099765,21.1384289 L21.314212,21.1384289 C21.8097931,21.2125543 22.2354842,21.0113569 22.5828143,20.7466236 C22.9301445,20.4797727 23.2287636,20.1345603 23.3050068,19.6538043 L23.3113605,19.6305077 L23.442668,17.9362142 C24.2749901,17.8684425 24.94,17.1716644 24.94,16.3245177 L24.94,3.79521739 C24.94,2.90359558 24.2051001,2.16869565 23.3134783,2.16869565 L6.50608696,2.16869565 L6.50608696,1.83407296 C6.50608696,0.76666807 5.55940034,0 4.55129572,0 Z M4.55129572,1.08434783 C4.97698736,1.08434783 5.42173913,1.47191759 5.42173913,1.83407296 L5.42173913,2.16869565 L3.79521739,2.16869565 L3.79521739,1.83407296 C3.79521739,1.41473505 4.12560462,1.08434783 4.55129572,1.08434783 Z M1.62652174,3.25304348 L2.71086957,3.25304348 L2.71086957,6.67339857 C2.71086957,7.50360238 3.39917616,8.1834375 4.22726223,8.1834375 L4.3373913,8.1834375 C4.75249321,8.1834375 5.13370924,8.02671562 5.4344466,7.7683356 C5.73518342,7.50995611 5.96391304,7.12662181 5.96391304,6.67339857 L5.96391304,4.3373913 C5.96603077,4.14254755 5.86437317,3.96041128 5.69494382,3.8608714 C5.52551447,3.76344925 5.31796379,3.76344925 5.14853444,3.8608714 C4.97910509,3.96041128 4.87744749,4.14254755 4.87956522,4.3373913 L4.87956522,6.67339857 C4.87956522,6.75599552 4.83509015,6.85341712 4.7270788,6.94660326 C4.62118573,7.0397894 4.46022785,7.09908967 4.3373913,7.09908967 L4.22726223,7.09908967 C3.98158967,7.09908967 3.79521739,6.91271739 3.79521739,6.67339857 L3.79521739,3.25304348 L23.3134783,3.25304348 C23.6205688,3.25304348 23.8556522,3.48812683 23.8556522,3.79521739 L23.8556522,16.3245177 C23.8556522,16.6294905 23.6205688,16.8666916 23.3134783,16.8666916 L1.62652174,16.8666916 C1.31943118,16.8666916 1.08434783,16.6294905 1.08434783,16.3245177 L1.08434783,3.79521739 C1.08434783,3.48812683 1.31943118,3.25304348 1.62652174,3.25304348 Z M10.3013043,6.50608696 C10.1064606,6.50396923 9.92432432,6.60562683 9.82478444,6.77505618 C9.7273623,6.94448553 9.7273623,7.15203621 9.82478444,7.32146556 C9.92432432,7.49089491 10.1064606,7.59255251 10.3013043,7.59043478 L20.0604348,7.59043478 C20.2552785,7.59255251 20.4374154,7.49089491 20.5369547,7.32146556 C20.6343768,7.15203621 20.6343768,6.94448553 20.5369547,6.77505618 C20.4374154,6.60562683 20.2552785,6.50396923 20.0604348,6.50608696 L10.3013043,6.50608696 Z M10.3013043,9.21695652 C10.1064606,9.21483879 9.92432432,9.3164964 9.82478444,9.48592575 C9.7273623,9.65535509 9.7273623,9.86290577 9.82478444,10.0323351 C9.92432432,10.2017645 10.1064606,10.3034221 10.3013043,10.3013043 L20.0604348,10.3013043 C20.2552785,10.3034221 20.4374154,10.2017645 20.5369547,10.0323351 C20.6343768,9.86290577 20.6343768,9.65535509 20.5369547,9.48592575 C20.4374154,9.3164964 20.2552785,9.21483879 20.0604348,9.21695652 L10.3013043,9.21695652 Z M10.3013043,11.9278261 C10.1064606,11.9257084 9.92432432,12.027366 9.82478444,12.1967953 C9.7273623,12.3662247 9.7273623,12.5737753 9.82478444,12.7432047 C9.92432432,12.912634 10.1064606,13.0142916 10.3013043,13.0121739 L20.0604348,13.0121739 C20.2552785,13.0142916 20.4374154,12.912634 20.5369547,12.7432047 C20.6343768,12.5737753 20.6343768,12.3662247 20.5369547,12.1967953 C20.4374154,12.027366 20.2552785,11.9257084 20.0604348,11.9278261 L10.3013043,11.9278261 Z M8.44605299,17.9510394 L22.3540847,17.9510394 L22.2354842,19.4822573 C22.224895,19.5352038 22.1084122,19.7448728 21.9241576,19.882534 C21.7420213,20.0244312 21.5196449,20.0731423 21.4751698,20.0667885 L8.44605299,17.9510394 Z" id="Shape" fill="#009BDE"></path>
    </g>
</svg>