<?xml version="1.0" encoding="UTF-8"?>
<svg width="25px" height="25px" viewBox="0 0 25 25" version="1.1" xmlns="http://www.w3.org/2000/svg" xmlns:xlink="http://www.w3.org/1999/xlink">
    <!-- Generator: Sketch 52.3 (67297) - http://www.bohemiancoding.com/sketch -->
    <title>Shape</title>
    <desc>Created with Sketch.</desc>
    <g id="Page-1" stroke="none" stroke-width="1" fill="none" fill-rule="evenodd">
        <g id="Menu-Screen" transform="translate(-19.000000, -151.000000)" fill="#009BDE" fill-rule="nonzero">
            <g id="icons8-add-(1)" transform="translate(19.000000, 151.000000)">
                <path d="M12.47,0 C5.58943081,0 0,5.58943081 0,12.47 C0,19.3505692 5.58943081,24.94 12.47,24.94 C19.3505692,24.94 24.94,19.3505692 24.94,12.47 C24.94,5.58943081 19.3505692,0 12.47,0 Z M12.47,1.08434783 C18.7645437,1.08434783 23.8556522,6.17545629 23.8556522,12.47 C23.8556522,18.7645437 18.7645437,23.8556522 12.47,23.8556522 C6.17545629,23.8556522 1.08434783,18.7645437 1.08434783,12.47 C1.08434783,6.17545629 6.17545629,1.08434783 12.47,1.08434783 Z M12.4615285,8.12519609 C12.1625108,8.12987021 11.9237312,8.37575642 11.9278261,8.67478261 L11.9278261,11.9278261 L8.67478261,11.9278261 C8.47925522,11.9250608 8.29738545,12.0277896 8.19881479,12.1966754 C8.10024412,12.3655613 8.10024412,12.5744387 8.19881479,12.7433246 C8.29738545,12.9122104 8.47925522,13.0149392 8.67478261,13.0121739 L11.9278261,13.0121739 L11.9278261,16.2652174 C11.9250608,16.4607448 12.0277896,16.6426145 12.1966754,16.7411852 C12.3655613,16.8397559 12.5744387,16.8397559 12.7433246,16.7411852 C12.9122104,16.6426145 13.0149392,16.4607448 13.0121739,16.2652174 L13.0121739,13.0121739 L16.2652174,13.0121739 C16.4607448,13.0149392 16.6426145,12.9122104 16.7411852,12.7433246 C16.8397559,12.5744387 16.8397559,12.3655613 16.7411852,12.1966754 C16.6426145,12.0277896 16.4607448,11.9250608 16.2652174,11.9278261 L13.0121739,11.9278261 L13.0121739,8.67478261 C13.0141807,8.52823282 12.9567764,8.38711237 12.8530406,8.28357609 C12.7493049,8.18003981 12.6080742,8.12290718 12.4615285,8.12519609 Z" id="Shape"></path>
            </g>
        </g>
    </g>
</svg>